<?xml version="1.0" encoding="UTF-8" standalone="no"?>
<svg
   xmlns:dc="http://purl.org/dc/elements/1.1/"
   xmlns:cc="http://creativecommons.org/ns#"
   xmlns:rdf="http://www.w3.org/1999/02/22-rdf-syntax-ns#"
   xmlns:svg="http://www.w3.org/2000/svg"
   xmlns="http://www.w3.org/2000/svg"
   xmlns:sodipodi="http://sodipodi.sourceforge.net/DTD/sodipodi-0.dtd"
   xmlns:inkscape="http://www.inkscape.org/namespaces/inkscape"
   inkscape:version="1.0beta1 (32d4812, 2019-09-19)"
   sodipodi:docname="Mobile-sign up-background.svg"
   id="svg1755"
   version="1.1"
   fill="none"
   viewBox="0 0 375 812"
   height="812"
   width="375">
  <metadata
     id="metadata1759">
    <rdf:RDF>
      <cc:Work
         rdf:about="">
        <dc:format>image/svg+xml</dc:format>
        <dc:type
           rdf:resource="http://purl.org/dc/dcmitype/StillImage" />
        <dc:title></dc:title>
      </cc:Work>
    </rdf:RDF>
  </metadata>
  <sodipodi:namedview
     inkscape:current-layer="svg1755"
     inkscape:window-maximized="1"
     inkscape:window-y="23"
     inkscape:window-x="0"
     inkscape:cy="420.22302"
     inkscape:cx="530.60249"
     inkscape:zoom="0.46857068"
     inkscape:snap-others="false"
     inkscape:document-units="pt"
     inkscape:snap-to-guides="true"
     showgrid="true"
     id="namedview1757"
     inkscape:window-height="755"
     inkscape:window-width="1280"
     inkscape:pageshadow="2"
     inkscape:pageopacity="0"
     guidetolerance="10"
     gridtolerance="10"
     objecttolerance="10"
     borderopacity="1"
     inkscape:document-rotation="0"
     bordercolor="#666666"
     pagecolor="#ffffff">
    <inkscape:grid
       id="grid2322"
       type="xygrid" />
  </sodipodi:namedview>
  <rect
     id="rect1660"
     fill="url(#paint0_linear)"
     height="812"
     width="375" />
  <path
     id="path1662"
     fill="#FAA05D"
     d="M9 311C69.7513 311 119 261.751 119 201C119 140.249 69.7513 91 9 91C-51.7513 91 -101 140.249 -101 201C-101 261.751 -51.7513 311 9 311Z" />
  <path
     id="path1664"
     fill="#F2F2F2"
     d="M711.197 843.4H-251.638L-132.512 714.429L87.5818 456.592L102.415 439.217L301.506 205.977L439.266 423.89L442.872 429.593L618.131 706.783L711.197 843.4Z" />
  <path
     id="path1666"
     fill="black"
     d="M439.266 423.89L418.245 460.777L371.111 411.459L319.469 460.777L290.279 404.731L243.128 460.777L229.656 424.914L198.239 460.777L142.106 424.914L102.415 439.217L301.506 205.977L439.266 423.89Z"
     opacity="0.1" />
  <path
     id="path1668"
     fill="#BFC0C7"
     d="M1241 836.183C1241 853.188 1194.03 857.06 1107.09 855.769C1018.23 854.452 887.599 847.736 722.706 844.155C660.341 842.803 593.058 841.89 521.286 841.89C74.2083 841.89 -378 877.155 -378 836.183C-378 826.526 -357.877 817.308 -321.249 808.845C-212.651 783.755 41.0017 765.38 344.878 762.422C358.702 762.281 372.626 762.179 386.65 762.114C401.5 762.035 416.45 761.997 431.5 762C552.312 762 666.953 764.423 769.922 768.769C770.25 768.786 770.564 768.804 770.891 768.813C779.157 769.164 787.343 769.527 795.447 769.901C804.298 770.314 813.053 770.738 821.713 771.174C823.495 771.262 825.276 771.35 827.043 771.446C828.326 771.508 829.609 771.578 830.877 771.648C833.214 771.763 835.552 771.885 837.86 772.017C837.942 772.015 838.023 772.018 838.103 772.026C842.35 772.254 846.568 772.482 850.758 772.711C851.2 772.737 851.642 772.763 852.084 772.781C973.865 779.585 1074.51 789.25 1142.89 800.76C1205.46 811.286 1241 823.348 1241 836.183Z" />
  <path
     id="path1670"
     fill="#F4F5F6"
     d="M126.135 710.622L153.508 710.997L160.759 712.593L161.48 713.462L171.18 723.555L180.57 733.381L188.575 739.909L200.561 746.158L201.816 747.777L202.671 750.537L202.65 761.447L199.721 762.435L197.829 772.717L194.665 772.794L194.619 770.839L193.343 766.99L190.961 764.053L187.409 761.817L183.527 761.116L177.131 760.966L172.077 762.189L168.535 764.352L163.257 770.378L158.858 777.605L158.894 779.132L126.769 779.911L126.602 745.171L126.135 710.622Z" />
  <path
     id="path1672"
     fill="#BFC0C7"
     d="M158.89 777.665L163.787 769.632L167.76 765.074L170.359 762.933L174.04 761.53L178.806 760.987L185.661 761.248L188.581 762.491L190.87 764.025L192.962 766.296L194.259 769.748L194.405 770.784L193.651 771.077L190.942 767.14L186.843 763.664L180.773 761.794L175.51 761.922L171.462 763.243L167.18 766.28L164.02 770.482L162.194 777.035L158.921 778.978L158.89 777.665Z" />
  <path
     id="path1674"
     fill="#BFC0C7"
     d="M26.2542 767.866L27.3232 768.023L21.2252 780.7L16.6923 780.81L20.4085 774.364L22.4629 771.075L24.4509 768.857L26.2542 767.866Z" />
  <path
     id="path1676"
     fill="#BFC0C7"
     d="M53.6079 776.583L54.9204 779.363L56.2102 782.479L54.1026 780.849L53.6079 776.583Z" />
  <path
     id="path1678"
     fill="#BFC0C7"
     d="M199.787 762.677L201.892 762.871L203.377 763.904L204.051 765.385L203.763 767.409L202.935 769.782L202.104 772.002L197.922 772.807L199.787 762.677Z" />
  <path
     id="path1680"
     fill="#BFC0C7"
     d="M126.173 709.644L170.865 709.965L165.906 711.369L160.974 712.649L157.592 711.876L154.211 711.102L126.195 710.59L126.173 709.644Z" />
  <path
     id="path1682"
     fill="#F4F5F6"
     d="M-50.3959 708.611L-51.3757 688.681L-51.337 683.791L-50.7527 681.423L-49.562 680.264L-46.7088 679.92L-42.0274 679.653L-16.7555 678.673L41.8332 677.099L97.9916 675.736L154.297 674.156L169.361 674.004L177.428 680.593L191.388 694.524L193.655 697.769L193.176 699.462L189.835 703.698L183.299 709.296L155.098 709.981L126.181 709.979L126.75 781.725L56.2999 782.416L53.9226 777.034L49.4496 769.228L47.4106 767.933L25.9513 767.935L24.479 768.765L22.1062 771.45L18.2379 777.9L15.3646 782.625L-13.3875 781.856L-41.1098 780.868L-42.9448 779.181L-45.3407 775.623L-47.7816 772.749L-48.1583 763.071L-48.6997 739.738L-50.3959 708.611Z" />
  <path
     id="path1684"
     stroke-linecap="square"
     stroke="#2A2E43"
     d="M147.48 682.847L147.276 695.014" />
  <path
     id="path1686"
     stroke-linecap="square"
     stroke="#2A2E43"
     d="M149.488 682.798L149.283 694.965" />
  <path
     id="path1688"
     stroke="#2A2E43"
     d="M132.131 683.097C143.701 682.817 155.27 682.536 166.839 682.255C166.962 682.252 168.468 683.701 171.357 686.602C173.357 688.625 174.442 689.834 174.61 690.23C174.864 690.825 175.077 691.215 174.899 692.366C174.716 693.55 173.714 694.434 172.521 694.463L132.204 695.441C130.793 695.475 129.622 694.354 129.589 692.937C129.589 692.912 129.588 692.887 129.589 692.861L129.635 685.649C129.643 684.261 130.749 683.131 132.131 683.097Z"
     clip-rule="evenodd"
     fill-rule="evenodd" />
  <path
     id="path1690"
     stroke="#2A2E43"
     d="M131.909 681.575L166.521 680.735C166.88 680.726 167.228 680.863 167.485 681.114L172.398 685.907C172.429 685.938 172.461 685.967 172.493 685.997C174.395 687.732 175.629 689.159 176.196 690.278C177.174 692.21 176.406 694.573 174.481 695.557C173.96 695.824 173.386 695.969 172.801 695.984L132.078 696.972C129.928 697.024 128.144 695.316 128.094 693.157C128.093 693.125 128.093 693.092 128.093 693.06L128.105 685.481C128.109 683.359 129.797 681.626 131.909 681.575Z"
     clip-rule="evenodd"
     fill-rule="evenodd" />
  <path
     id="path1692"
     fill="#FAA05D"
     d="M-50.7679 702.059L192.823 696.149L193.96 697.941C193.861 698.486 193.7 698.942 193.478 699.309C193.256 699.676 192.866 700.129 192.308 700.669C191.376 701.805 190.599 702.709 189.978 703.38C189.356 704.052 188.39 705.032 187.078 706.322C186.187 707.311 185.49 708 184.988 708.388C184.485 708.775 183.895 709.08 183.218 709.3C182.846 709.51 181.774 709.667 180.002 709.774C178.23 709.88 175.596 709.943 172.102 709.965L126.193 709.814L126.636 748.541L113.478 748.861L113 728.25C113.809 727.863 114.339 727.495 114.591 727.147C114.843 726.799 115.053 726.142 115.223 725.177L114.668 701.221C114.082 700.538 113.656 700.041 113.391 699.733C113.127 699.424 112.626 699.197 111.891 699.05L47.0859 700.623C46.2472 700.804 45.6899 701.057 45.414 701.382C45.1382 701.708 44.7777 702.223 44.3326 702.928C44.4067 713.505 44.592 721.491 44.8884 726.884C44.914 727.35 45.1807 728.384 46.0584 729.155C46.3338 729.396 46.9029 729.655 47.7658 729.929L47.9297 750.451L-48.4143 752.789L-50.7679 702.059Z"
     clip-rule="evenodd"
     fill-rule="evenodd" />
  <path
     id="path1694"
     fill="#FAA05D"
     d="M113.782 728.707L46.4893 730.339L46.9569 750.496L114.25 748.863L113.782 728.707Z" />
  <path
     id="path1696"
     stroke="#2A2E43"
     d="M-49.5769 680.377C-47.0647 679.028 13.3897 677.958 70.7695 676.448C121.253 675.119 168.41 673.608 169.414 674.054C172.661 675.497 193.919 696.173 193.96 697.941C194.001 699.709 185.599 708.373 183.331 709.367C181.819 710.03 162.773 710.179 126.193 709.815L126.839 781.738C88.39 782.028 64.8879 782.277 56.3321 782.484C54.8906 780.032 51.763 770.437 48.7888 768.667C43.376 765.446 27.1347 767.866 26.8645 767.865C22.4044 767.855 18.9276 778.467 15.298 782.559C-4.0045 782.283 -22.8233 781.705 -41.1585 780.824C-43.9725 778.626 -44.0139 776.842 -47.8141 772.789C-48.9124 725.45 -51.0433 699.965 -51.2697 691.381C-51.3919 686.749 -52.0891 681.725 -49.5769 680.377Z"
     clip-rule="evenodd"
     fill-rule="evenodd" />
  <path
     id="path1698"
     stroke-linecap="square"
     stroke="#2A2E43"
     d="M160.958 712.711L171.274 709.985" />
  <path
     id="path1700"
     stroke="#2A2E43"
     d="M199.659 762.575C200.999 762.573 201.966 762.774 202.56 763.176C203.451 763.779 203.887 764.603 204.066 765.529C204.186 766.146 203.856 767.461 203.078 769.475C202.591 770.66 202.267 771.459 202.105 771.87C201.943 772.281 200.527 772.597 197.856 772.819L199.659 762.575Z"
     clip-rule="evenodd"
     fill-rule="evenodd" />
  <path
     id="path1702"
     stroke-linecap="square"
     stroke="#2A2E43"
     d="M193.41 771.205L194.436 770.813" />
  <path
     id="path1704"
     stroke-linecap="square"
     stroke="#2A2E43"
     d="M16.7058 780.84L21.4516 780.725" />
  <path
     id="path1706"
     fill="#FAA05D"
     d="M126.551 738.481L184.869 737.066L192.476 742.167C195.574 743.53 197.808 744.607 199.179 745.398C200.55 746.189 201.305 746.802 201.444 747.236L126.648 749.051L126.551 738.481Z"
     clip-rule="evenodd"
     fill-rule="evenodd" />
  <path
     id="path1708"
     stroke="#2A2E43"
     d="M126.347 710.68C142.84 710.894 151.943 711.052 153.655 711.153C155.367 711.255 157.715 711.776 160.7 712.717L179.928 732.66C183.648 736.19 186.946 738.8 189.82 740.491C192.694 742.181 195.613 743.692 198.575 745.022C200.462 745.903 201.676 747.103 202.216 748.624C202.756 750.145 202.856 754.461 202.516 761.572L199.659 762.575L197.856 772.819L194.556 772.899C194.596 771.075 194.316 769.396 193.715 767.863C192.814 765.562 189.465 761.289 183.318 761.124C180.772 761.055 175.905 760.611 171.851 762.316C169.38 763.355 168.607 764.004 165.342 767.796C163.165 770.323 161.356 773.116 159.916 776.174L158.959 777.727L126.868 778.506L126.347 710.68Z"
     clip-rule="evenodd"
     fill-rule="evenodd" />
  <path
     id="path1710"
     stroke="#2A2E43"
     d="M126.364 714.755C144.655 714.935 154.455 715.063 155.766 715.141C157.077 715.219 158.312 715.746 159.473 716.721C166.926 723.98 171.716 728.819 173.844 731.238C177.037 734.868 177.776 735.566 179.385 739.361C180.994 743.156 180.804 744.883 180.872 747.813C180.94 750.743 179.788 756.731 179.788 756.731C179.788 756.731 175.416 756.731 171.715 757.984C168.015 759.238 167.53 759.225 164.691 761.844C161.853 764.463 161.405 766.707 160.175 768.633C158.945 770.559 157.14 774.349 156.648 775.073C156.319 775.556 146.369 775.667 126.796 775.406L126.364 714.755Z"
     clip-rule="evenodd"
     fill-rule="evenodd" />
  <path
     id="path1712"
     stroke="#2A2E43"
     d="M164.213 723.388C168.886 728.765 171.413 731.774 171.794 732.415C172.366 733.377 171.841 734.435 170.794 734.46C169.747 734.486 142.672 735.28 140.43 735.197C138.188 735.114 138.168 734.283 137.846 733.239C137.523 732.195 134.718 720.226 134.591 719.072C134.464 717.919 134.541 716.909 136.04 716.82C137.54 716.731 152.272 716.478 155.769 716.887C158.1 717.16 160.915 719.327 164.213 723.388Z"
     clip-rule="evenodd"
     fill-rule="evenodd" />
  <path
     id="path1714"
     stroke-linecap="square"
     stroke="#2A2E43"
     d="M158.871 778.919L158.968 777.816" />
  <path
     id="path1716"
     stroke-linecap="square"
     stroke="#2A2E43"
     d="M126.872 779.878L158.988 779.099L162.194 777.066" />
  <path
     id="path1718"
     stroke-linecap="square"
     stroke="#2A2E43"
     d="M131.393 714.987C132.467 725.312 133.121 735.496 133.354 745.539C133.587 755.582 133.401 765.534 132.795 775.395" />
  <path
     id="path1720"
     stroke-linecap="square"
     stroke="#2A2E43"
     d="M161.399 713.467C161.04 713.768 160.796 714.18 160.669 714.704C160.681 715.214 177.83 732.445 178.373 732.953C178.735 733.291 179.459 733.386 180.546 733.236L171.621 724.044L161.399 713.467Z"
     clip-rule="evenodd"
     fill-rule="evenodd" />
  <path
     id="path1722"
     stroke-linecap="round"
     stroke="#2A2E43"
     d="M56.2528 782.447L54.0553 780.881" />
  <ellipse
     id="ellipse1724"
     fill="#F4F5F6"
     transform="matrix(0.999706 -0.0242578 0.0231944 0.999731 37.6925 780.698)"
     ry="9.68389"
     rx="9.76824" />
  <path
     id="path1726"
     stroke="#555869"
     fill="#555869"
     d="M37.4199 767.083C40.4824 767.009 43.3713 767.07 45.8357 767.713C46.3226 767.84 46.767 767.873 47.3677 768.151C47.9982 768.443 48.7791 768.977 49.016 768.971C51.057 771.339 53.9315 775.549 54.0411 780.27C54.2508 789.311 47.1204 796.817 38.1148 797.036C29.1093 797.254 21.6388 790.102 21.429 781.062C21.3033 775.641 22.6588 772.136 27.6289 767.792C28.6967 767.766 33.814 767.17 37.4199 767.083ZM37.5083 770.893C32.1319 771.024 27.8749 775.505 28.0001 780.902C28.1253 786.3 32.5853 790.569 37.9618 790.439C43.3383 790.309 47.5952 785.827 47.47 780.43C47.3448 775.032 42.8848 770.763 37.5083 770.893Z"
     clip-rule="evenodd"
     fill-rule="evenodd" />
  <ellipse
     id="ellipse1728"
     fill="#F4F5F6"
     transform="matrix(0.999706 -0.0242578 0.0231944 0.999731 178.681 777.888)"
     ry="9.68388"
     rx="9.76824" />
  <path
     id="path1730"
     stroke="#555869"
     fill="#555869"
     d="M178.271 761.55C187.277 761.331 194.747 768.483 194.957 777.523C195.167 786.564 188.036 794.07 179.031 794.289C170.025 794.507 162.555 787.355 162.345 778.315C162.135 769.274 169.266 761.768 178.271 761.55ZM178.424 768.146C173.048 768.277 168.791 772.758 168.916 778.155C169.041 783.553 173.501 787.822 178.878 787.692C184.254 787.562 188.511 783.08 188.386 777.683C188.261 772.285 183.801 768.016 178.424 768.146Z"
     clip-rule="evenodd"
     fill-rule="evenodd" />
  <path
     id="path1732"
     stroke-linecap="round"
     stroke="#2A2E43"
     d="M136.265 741.27C137.276 741.205 138.13 741.164 138.827 741.147C139.523 741.13 140.718 741.121 142.41 741.121" />
  <path
     id="path1734"
     fill="#2A2E43"
     d="M136.149 741.548C136.334 741.544 136.481 741.417 136.478 741.265C136.474 741.113 136.321 740.994 136.137 740.998C135.952 741.003 135.805 741.13 135.808 741.281C135.812 741.433 135.964 741.553 136.149 741.548Z" />
  <path
     id="path1736"
     stroke="#2A2E43"
     d="M142.612 740.658L141.943 740.674C141.842 740.676 141.762 740.761 141.765 740.862L141.775 741.289C141.777 741.39 141.861 741.471 141.961 741.468L142.631 741.452C142.731 741.449 142.811 741.365 142.809 741.264L142.799 740.837C142.797 740.735 142.713 740.655 142.612 740.658Z" />
  <path
     id="path1738"
     stroke="#2A2E43"
     d="M136.887 740.552L135.914 740.576C135.611 740.583 135.372 740.835 135.379 741.139L135.39 741.628C135.397 741.931 135.648 742.171 135.951 742.164L136.924 742.14C137.226 742.133 137.466 741.881 137.459 741.577L137.448 741.089C137.44 740.785 137.19 740.545 136.887 740.552Z" />
  <path
     id="path1740"
     stroke="#2A2E43"
     d="M136.475 745.085C136.828 745.076 137.107 744.782 137.099 744.428C137.091 744.074 136.798 743.794 136.445 743.802C136.092 743.811 135.813 744.105 135.821 744.459C135.829 744.813 136.122 745.093 136.475 745.085Z" />
  <path
     id="path1742"
     stroke="#2A2E43"
     fill="#2A2E43"
     d="M136.462 744.535C136.513 744.534 136.553 744.492 136.551 744.441C136.55 744.391 136.508 744.351 136.458 744.352C136.408 744.353 136.368 744.395 136.369 744.446C136.37 744.496 136.412 744.536 136.462 744.535Z" />
  <path
     id="path1744"
     stroke="#2A2E43"
     d="M49.1835 702.1L109.784 700.63C111.632 700.585 113.165 702.052 113.208 703.908L113.67 723.82C113.713 725.675 112.25 727.216 110.401 727.261L49.8014 728.731C47.9532 728.776 46.4201 727.308 46.3771 725.453L45.9151 705.541C45.872 703.685 47.3354 702.145 49.1835 702.1ZM77.9625 701.402L78.5803 728.033L77.9625 701.402ZM79.4836 701.365L80.1014 727.996L79.4836 701.365ZM47.627 700.61L111.269 699.066C113.117 699.021 114.65 700.489 114.694 702.344L115.226 725.31C115.269 727.166 113.806 728.706 111.958 728.751L48.3157 730.295C46.4676 730.34 44.9345 728.872 44.8914 727.017L44.3586 704.051C44.3155 702.195 45.7789 700.655 47.627 700.61Z"
     clip-rule="evenodd"
     fill-rule="evenodd" />
  <path
     style="opacity:1"
     id="path1746"
     fill-opacity="0.5"
     fill="white"
     d="M0 3.00001C0 1.34316 1.34315 0 3 0H372C373.657 0 375 1.34315 375 3V809C375 810.657 373.657 812 372 812H3.00001C1.34315 812 0 810.657 0 809V3.00001Z" />
  <defs
     id="defs1753">
    <linearGradient
       gradientUnits="userSpaceOnUse"
       y2="812"
       x2="187.5"
       y1="0"
       x1="187.5"
       id="paint0_linear">
      <stop
         id="stop1748"
         stop-opacity="0.09"
         stop-color="#00B2D9" />
      <stop
         id="stop1750"
         stop-opacity="0.1"
         stop-color="#FAA05D"
         offset="0.609375" />
    </linearGradient>
  </defs>
</svg>
