<svg width="375" height="812" viewBox="0 0 375 812" fill="none" xmlns="http://www.w3.org/2000/svg">
<rect width="375" height="812" fill="url(#paint0_linear)"/>
<path d="M158.619 430.807C225.575 430.807 279.854 376.596 279.854 309.723C279.854 242.851 225.575 188.64 158.619 188.64C91.6633 188.64 37.3848 242.851 37.3848 309.723C37.3848 376.596 91.6633 430.807 158.619 430.807Z" fill="#F8F9FA"/>
<path d="M711.197 813.424H-251.638L-132.512 684.452L87.5821 426.615L102.415 409.24L301.506 176L439.266 393.913L442.873 399.617L618.131 676.806L711.197 813.424Z" fill="#454F63"/>
<path opacity="0.1" d="M439.266 393.913L418.245 430.8L371.111 381.482L319.468 430.8L290.279 374.755L243.128 430.8L229.656 394.937L198.239 430.8L142.106 394.937L102.415 409.24L301.506 176L439.266 393.913Z" fill="#F2F2F2"/>
<path d="M1241 814.207C1241 831.212 1194.03 835.083 1107.09 833.793C1018.23 832.476 887.599 825.76 722.706 822.178C660.341 820.826 593.058 819.913 521.286 819.913C74.2083 819.913 -378 855.179 -378 814.207C-378 804.55 -357.877 795.332 -321.249 786.869C-212.651 761.778 41.0017 743.404 344.878 740.445C358.702 740.305 372.626 740.202 386.65 740.138C401.5 740.059 416.45 740.021 431.5 740.024C552.312 740.024 666.953 742.447 769.922 746.792C770.25 746.81 770.564 746.827 770.891 746.836C779.157 747.187 787.343 747.55 795.447 747.925C804.298 748.338 813.053 748.762 821.713 749.198C823.495 749.286 825.276 749.373 827.043 749.47C828.326 749.531 829.609 749.602 830.877 749.672C833.214 749.786 835.552 749.909 837.86 750.041C837.942 750.039 838.023 750.042 838.103 750.049C842.35 750.278 846.568 750.506 850.758 750.734C851.2 750.761 851.642 750.787 852.084 750.804C973.865 757.608 1074.51 767.274 1142.89 778.783C1205.46 789.309 1241 801.372 1241 814.207Z" fill="#2A2E43"/>
<path d="M99.7162 689.078L127.089 689.452L134.34 691.049L135.061 691.917L144.761 702.01L154.151 711.836L162.156 718.364L174.142 724.613L175.397 726.233L176.252 728.992L176.231 739.902L173.302 740.89L171.41 751.173L168.246 751.249L168.2 749.295L166.924 745.445L164.542 742.508L160.99 740.272L157.108 739.572L150.713 739.421L145.658 740.644L142.116 742.808L136.838 748.833L132.44 756.06L132.475 757.587L100.35 758.367L100.183 723.627L99.7162 689.078Z" fill="#F4F5F6"/>
<path d="M132.471 756.12L137.368 748.087L141.341 743.529L143.94 741.388L147.621 739.985L152.387 739.442L159.242 739.703L162.163 740.946L164.451 742.48L166.543 744.751L167.84 748.203L167.986 749.239L167.232 749.532L164.523 745.595L160.424 742.119L154.354 740.25L149.091 740.377L145.043 741.698L140.761 744.735L137.601 748.937L135.775 755.49L132.502 757.434L132.471 756.12Z" fill="#BFC0C7"/>
<path d="M-0.164737 746.321L0.904273 746.479L-5.19377 759.155L-9.7266 759.265L-6.01043 752.819L-3.95602 749.53L-1.96807 747.312L-0.164737 746.321Z" fill="#BFC0C7"/>
<path d="M27.189 755.039L28.5014 757.818L29.7913 760.934L27.6836 759.305L27.189 755.039Z" fill="#BFC0C7"/>
<path d="M173.368 741.133L175.473 741.326L176.958 742.36L177.632 743.84L177.344 745.864L176.516 748.237L175.685 750.458L171.503 751.262L173.368 741.133Z" fill="#BFC0C7"/>
<path d="M99.7544 688.099L144.446 688.42L139.487 689.824L134.555 691.105L131.173 690.331L127.792 689.558L99.7764 689.046L99.7544 688.099Z" fill="#BFC0C7"/>
<path d="M-76.8148 687.066L-77.7947 667.136L-77.7559 662.246L-77.1716 659.879L-75.981 658.719L-73.1277 658.375L-68.4463 658.109L-43.1744 657.129L15.4142 655.554L71.5727 654.192L127.878 652.611L142.942 652.46L151.009 659.048L164.969 672.979L167.236 676.225L166.757 677.917L163.416 682.154L156.88 687.752L128.679 688.436L99.762 688.435L100.331 760.181L29.881 760.871L27.5036 755.489L23.0307 747.684L20.9917 746.389L-0.467681 746.39L-1.93992 747.22L-4.31272 749.906L-8.181 756.355L-11.0544 761.08L-39.8065 760.311L-67.5287 759.323L-69.3637 757.637L-71.7596 754.078L-74.2005 751.204L-74.5773 741.527L-75.1186 718.194L-76.8148 687.066Z" fill="#F4F5F6"/>
<path d="M121.061 661.302L120.857 673.469" stroke="#2A2E43" stroke-linecap="square"/>
<path d="M123.069 661.254L122.865 673.42" stroke="#2A2E43" stroke-linecap="square"/>
<path fill-rule="evenodd" clip-rule="evenodd" d="M105.712 661.553C117.282 661.272 128.851 660.991 140.421 660.71C140.543 660.707 142.049 662.156 144.938 665.057C146.938 667.08 148.023 668.289 148.192 668.686C148.445 669.28 148.658 669.67 148.48 670.821C148.297 672.005 147.295 672.889 146.102 672.918L105.785 673.896C104.374 673.93 103.203 672.809 103.17 671.393C103.17 671.367 103.169 671.342 103.17 671.316L103.216 664.104C103.224 662.716 104.33 661.586 105.712 661.553Z" stroke="#2A2E43"/>
<path fill-rule="evenodd" clip-rule="evenodd" d="M105.491 660.03L140.102 659.19C140.461 659.182 140.809 659.318 141.066 659.57L145.979 664.362C146.011 664.393 146.042 664.423 146.074 664.452C147.976 666.187 149.21 667.614 149.777 668.733C150.755 670.665 149.988 673.029 148.062 674.012C147.541 674.279 146.967 674.425 146.382 674.439L105.659 675.427C103.509 675.479 101.725 673.771 101.675 671.612C101.674 671.58 101.674 671.547 101.674 671.515L101.686 663.936C101.69 661.815 103.378 660.081 105.491 660.03Z" stroke="#2A2E43"/>
<path fill-rule="evenodd" clip-rule="evenodd" d="M-77.1869 680.515L166.404 674.604L167.541 676.396C167.442 676.942 167.281 677.398 167.059 677.764C166.837 678.131 166.447 678.584 165.889 679.125C164.957 680.26 164.18 681.164 163.559 681.836C162.937 682.507 161.971 683.488 160.659 684.777C159.768 685.767 159.071 686.455 158.569 686.843C158.066 687.231 157.476 687.535 156.799 687.755C156.427 687.965 155.355 688.123 153.583 688.229C151.811 688.335 149.177 688.399 145.683 688.42L99.7739 688.27L100.217 726.997L87.0595 727.316L86.5813 706.706C87.3897 706.318 87.9198 705.951 88.1717 705.603C88.4236 705.254 88.6345 704.598 88.8044 703.633L88.2486 679.677C87.6627 678.993 87.2373 678.497 86.9725 678.188C86.7077 677.879 86.2074 677.652 85.4716 677.506L20.667 679.078C19.8282 679.259 19.271 679.512 18.9951 679.838C18.7192 680.163 18.3588 680.678 17.9137 681.383C17.9877 691.96 18.173 699.946 18.4695 705.339C18.495 705.805 18.7618 706.839 19.6394 707.61C19.9148 707.852 20.484 708.11 21.3469 708.385L21.5107 728.906L-74.8333 731.244L-77.1869 680.515Z" fill="#FAA05D"/>
<path d="M87.3631 707.162L20.0703 708.795L20.538 728.951L87.8307 727.318L87.3631 707.162Z" fill="#FAA05D"/>
<path fill-rule="evenodd" clip-rule="evenodd" d="M-75.9958 658.832C-73.4836 657.484 -13.0293 656.413 44.3506 654.903C94.8337 653.574 141.991 652.063 142.995 652.509C146.242 653.953 167.5 674.628 167.541 676.396C167.582 678.165 159.18 686.828 156.912 687.822C155.4 688.485 136.354 688.634 99.7739 688.27L100.42 760.193C61.9711 760.483 38.4689 760.732 29.9131 760.94C28.4717 758.487 25.344 748.892 22.3698 747.122C16.957 743.901 0.715799 746.321 0.445593 746.32C-4.01458 746.31 -7.49136 756.923 -11.121 761.014C-30.4234 760.739 -49.2423 760.16 -67.5774 759.279C-70.3915 757.081 -70.4329 755.297 -74.2331 751.244C-75.3314 703.905 -77.4622 678.42 -77.6886 669.836C-77.8108 665.204 -78.5081 660.18 -75.9958 658.832Z" stroke="#2A2E43"/>
<path d="M134.539 691.166L144.855 688.441" stroke="#2A2E43" stroke-linecap="square"/>
<path fill-rule="evenodd" clip-rule="evenodd" d="M173.24 741.03C174.58 741.029 175.547 741.229 176.141 741.631C177.032 742.234 177.468 743.058 177.647 743.984C177.767 744.601 177.437 745.916 176.659 747.93C176.172 749.116 175.848 749.914 175.686 750.325C175.524 750.736 174.108 751.052 171.437 751.274L173.24 741.03Z" stroke="#2A2E43"/>
<path d="M166.991 749.66L168.017 749.269" stroke="#2A2E43" stroke-linecap="square"/>
<path fill-rule="evenodd" clip-rule="evenodd" d="M100.132 716.936L158.45 715.521L166.057 720.623C169.155 721.985 171.389 723.062 172.76 723.853C174.131 724.644 174.886 725.257 175.025 725.691L100.229 727.506L100.132 716.936Z" fill="#FAA05D"/>
<path fill-rule="evenodd" clip-rule="evenodd" d="M99.9283 689.135C116.421 689.349 125.524 689.507 127.236 689.608C128.948 689.71 131.296 690.231 134.282 691.172L153.509 711.115C157.23 714.645 160.527 717.255 163.401 718.946C166.275 720.636 169.194 722.147 172.156 723.478C174.043 724.358 175.257 725.558 175.797 727.079C176.337 728.6 176.437 732.916 176.097 740.027L173.24 741.03L171.437 751.274L168.137 751.354C168.177 749.53 167.897 747.851 167.296 746.318C166.395 744.018 163.046 739.744 156.899 739.579C154.353 739.51 149.486 739.066 145.432 740.771C142.961 741.81 142.188 742.459 138.923 746.251C136.746 748.778 134.937 751.571 133.497 754.629L132.54 756.182L100.449 756.961L99.9283 689.135Z" stroke="#2A2E43"/>
<path fill-rule="evenodd" clip-rule="evenodd" d="M99.9448 693.21C118.236 693.39 128.036 693.518 129.347 693.596C130.658 693.674 131.893 694.201 133.054 695.177C140.507 702.435 145.297 707.274 147.426 709.694C150.618 713.323 151.357 714.021 152.966 717.816C154.575 721.612 154.385 723.338 154.453 726.268C154.521 729.199 153.369 735.186 153.369 735.186C153.369 735.186 148.997 735.186 145.296 736.439C141.596 737.693 141.111 737.68 138.272 740.299C135.434 742.918 134.986 745.162 133.756 747.088C132.526 749.014 130.721 752.804 130.229 753.528C129.901 754.011 119.95 754.122 100.377 753.861L99.9448 693.21Z" stroke="#2A2E43"/>
<path fill-rule="evenodd" clip-rule="evenodd" d="M137.794 701.843C142.467 707.22 144.994 710.229 145.375 710.87C145.947 711.833 145.422 712.89 144.375 712.915C143.328 712.941 116.253 713.735 114.011 713.652C111.769 713.569 111.749 712.738 111.427 711.694C111.104 710.65 108.299 698.681 108.172 697.527C108.046 696.374 108.122 695.364 109.621 695.275C111.121 695.187 125.853 694.933 129.35 695.342C131.681 695.615 134.496 697.782 137.794 701.843Z" stroke="#2A2E43"/>
<path d="M132.453 757.374L132.549 756.271" stroke="#2A2E43" stroke-linecap="square"/>
<path d="M100.453 758.334L132.569 757.554L135.775 755.521" stroke="#2A2E43" stroke-linecap="square"/>
<path d="M104.974 693.442C106.048 703.767 106.702 713.951 106.935 723.994C107.168 734.037 106.982 743.989 106.376 753.851" stroke="#2A2E43" stroke-linecap="square"/>
<path fill-rule="evenodd" clip-rule="evenodd" d="M134.981 691.922C134.621 692.223 134.377 692.635 134.25 693.159C134.262 693.669 151.411 710.901 151.954 711.408C152.316 711.746 153.04 711.841 154.127 711.691L145.202 702.499L134.981 691.922Z" stroke="#2A2E43" stroke-linecap="square"/>
<path d="M29.8338 760.903L27.6364 759.336" stroke="#2A2E43" stroke-linecap="round"/>
<ellipse rx="9.76824" ry="9.68389" transform="matrix(0.999706 -0.0242578 0.0231944 0.999731 11.2735 759.153)" fill="#F4F5F6"/>
<path fill-rule="evenodd" clip-rule="evenodd" d="M11.001 745.538C14.0635 745.464 16.9523 745.526 19.4167 746.168C19.9036 746.295 20.348 746.328 20.9488 746.606C21.5792 746.898 22.3601 747.432 22.597 747.427C24.638 749.795 27.5126 754.004 27.6221 758.726C27.8319 767.766 20.7015 775.272 11.6959 775.491C2.69032 775.709 -4.78017 768.558 -4.98992 759.517C-5.11568 754.096 -3.76016 750.592 1.20992 746.247C2.27773 746.221 7.39508 745.626 11.001 745.538ZM11.0894 749.348C5.71291 749.479 1.45594 753.96 1.58117 759.358C1.70639 764.755 6.16639 769.025 11.5428 768.894C16.9193 768.764 21.1763 764.283 21.051 758.885C20.9258 753.488 16.4658 749.218 11.0894 749.348Z" fill="#555869" stroke="#555869"/>
<ellipse rx="9.76824" ry="9.68388" transform="matrix(0.999706 -0.0242578 0.0231944 0.999731 152.262 756.343)" fill="#F4F5F6"/>
<path fill-rule="evenodd" clip-rule="evenodd" d="M151.852 740.005C160.858 739.786 168.328 746.938 168.538 755.979C168.748 765.019 161.617 772.525 152.612 772.744C143.606 772.962 136.136 765.811 135.926 756.77C135.716 747.729 142.847 740.223 151.852 740.005ZM152.005 746.601C146.629 746.732 142.372 751.213 142.497 756.61C142.622 762.008 147.082 766.278 152.459 766.147C157.835 766.017 162.092 761.535 161.967 756.138C161.842 750.741 157.382 746.471 152.005 746.601Z" fill="#555869" stroke="#555869"/>
<path d="M109.846 719.725C110.857 719.66 111.712 719.619 112.408 719.602C113.104 719.585 114.299 719.577 115.991 719.576" stroke="#2A2E43" stroke-linecap="round"/>
<path d="M109.73 720.003C109.915 719.999 110.062 719.872 110.059 719.72C110.055 719.569 109.902 719.449 109.718 719.454C109.533 719.458 109.386 719.585 109.389 719.737C109.393 719.888 109.546 720.008 109.73 720.003Z" fill="#2A2E43"/>
<path d="M116.193 719.113L115.524 719.129C115.423 719.132 115.343 719.216 115.346 719.317L115.356 719.744C115.358 719.846 115.442 719.926 115.542 719.923L116.212 719.907C116.312 719.905 116.392 719.821 116.39 719.719L116.38 719.292C116.378 719.191 116.294 719.111 116.193 719.113Z" stroke="#2A2E43"/>
<path d="M110.468 719.007L109.495 719.031C109.192 719.038 108.953 719.29 108.96 719.594L108.971 720.083C108.978 720.386 109.229 720.627 109.532 720.619L110.505 720.596C110.807 720.588 111.047 720.336 111.04 720.033L111.029 719.544C111.022 719.24 110.771 719 110.468 719.007Z" stroke="#2A2E43"/>
<path d="M110.056 723.54C110.409 723.531 110.688 723.237 110.68 722.883C110.672 722.529 110.379 722.249 110.026 722.257C109.673 722.266 109.394 722.56 109.402 722.914C109.41 723.268 109.703 723.549 110.056 723.54Z" stroke="#2A2E43"/>
<path d="M110.043 722.99C110.094 722.989 110.134 722.947 110.132 722.896C110.131 722.846 110.089 722.806 110.039 722.807C109.989 722.808 109.949 722.85 109.95 722.901C109.951 722.951 109.993 722.992 110.043 722.99Z" fill="#2A2E43" stroke="#2A2E43"/>
<path fill-rule="evenodd" clip-rule="evenodd" d="M22.7646 680.555L83.3646 679.085C85.2128 679.04 86.7459 680.508 86.7889 682.363L87.2509 702.275C87.294 704.131 85.8306 705.671 83.9825 705.716L23.3825 707.186C21.5343 707.231 20.0012 705.764 19.9581 703.908L19.4961 683.996C19.4531 682.141 20.9164 680.6 22.7646 680.555ZM51.5435 679.857L52.1614 706.488L51.5435 679.857ZM53.0646 679.82L53.6825 706.451L53.0646 679.82ZM21.2081 679.065L84.8503 677.521C86.6984 677.476 88.2316 678.944 88.2746 680.799L88.8074 703.765C88.8505 705.621 87.3871 707.161 85.539 707.206L21.8968 708.75C20.0486 708.795 18.5155 707.327 18.4725 705.472L17.9396 682.506C17.8966 680.65 19.3599 679.11 21.2081 679.065Z" stroke="#2A2E43"/>
<path d="M0 0H374V812H0V0Z" fill="white" fill-opacity="0.4"/>
<defs>
<linearGradient id="paint0_linear" x1="187.5" y1="0" x2="187.5" y2="812" gradientUnits="userSpaceOnUse">
<stop stop-color="#454F63"/>
<stop offset="1" stop-color="#00359E" stop-opacity="0.3"/>
</linearGradient>
</defs>
</svg>
